<svg width="140" height="140" viewBox="0 0 140 140" fill="none" xmlns="http://www.w3.org/2000/svg">
<path d="M104.725 58.3919C104.725 77.9383 88.8798 93.7839 69.3333 93.7839C49.7869 93.7839 33.9414 77.9383 33.9414 58.3919C33.9414 38.8455 49.7869 23 69.3333 23C88.8798 23 104.725 38.8455 104.725 58.3919Z" fill="url(#paint0_linear_948_1192)"/>
<path d="M65.3985 42.6617C65.3985 44.1095 64.2248 45.2833 62.7769 45.2833C61.329 45.2833 60.1553 44.1095 60.1553 42.6617C60.1553 41.2138 61.329 40.04 62.7769 40.04C64.2248 40.04 65.3985 41.2138 65.3985 42.6617Z" fill="#18181B"/>
<path d="M83.752 37.42C83.752 38.8678 82.5783 40.0416 81.1304 40.0416C79.6825 40.0416 78.5088 38.8678 78.5088 37.42C78.5088 35.9721 79.6825 34.7983 81.1304 34.7983C82.5783 34.7983 83.752 35.9721 83.752 37.42Z" fill="#18181B"/>
<path d="M82.6762 49.7779C83.0899 49.184 83.9063 49.038 84.5004 49.4515C85.0943 49.8651 85.2403 50.6815 84.8268 51.2756C82.8071 54.1772 79.8667 55.356 77.1309 55.674C74.4213 55.9889 71.8132 55.4787 70.2005 54.8995C69.5193 54.6549 69.1649 53.9039 69.4094 53.2226C69.6541 52.5414 70.4051 52.187 71.0863 52.4315C72.3865 52.8985 74.5854 53.3308 76.8275 53.0703C79.0434 52.8128 81.2006 51.898 82.6762 49.7779Z" fill="black"/>
<path d="M30.946 103.284C29.628 103.606 28.2982 102.799 27.9758 101.481L22.5853 79.4446C22.2629 78.1266 23.07 76.7968 24.388 76.4744L46.4246 71.0839C47.7427 70.7615 49.0725 71.5686 49.3949 72.8866L54.7854 94.9232C55.1078 96.2412 54.3007 97.571 52.9826 97.8934L30.946 103.284Z" fill="url(#paint1_linear_948_1192)" fill-opacity="0.2"/>
<path d="M111.386 62.248C112.709 61.5577 114.288 62.5335 114.262 64.0249L113.974 80.723C113.948 82.2474 112.272 83.1631 110.975 82.3618L96.4586 73.393C95.1616 72.5916 95.2306 70.6829 96.5821 69.9773L111.386 62.248Z" fill="url(#paint2_linear_948_1192)" fill-opacity="0.8"/>
<path d="M25.1737 57.108C25.9931 57.6485 25.9496 58.8648 25.0936 59.3452L17.0217 63.8762C16.1297 64.377 15.0335 63.7085 15.0701 62.6863L15.4151 53.0581C15.4518 52.0358 16.593 51.4476 17.4469 52.0109L25.1737 57.108Z" fill="white"/>
<path d="M98.172 115.412C98.172 117.945 86.1412 119.999 71.3004 119.999C56.4596 119.999 44.4287 117.945 44.4287 115.412C44.4287 112.878 56.4596 110.824 71.3004 110.824C86.1412 110.824 98.172 112.878 98.172 115.412Z" fill="#2C2C2C"/>
<defs>
<linearGradient id="paint0_linear_948_1192" x1="69.3333" y1="23" x2="69.3333" y2="93.7839" gradientUnits="userSpaceOnUse">
<stop stop-color="#D0F742"/>
<stop offset="1" stop-color="#BEE629"/>
</linearGradient>
<linearGradient id="paint1_linear_948_1192" x1="31.001" y1="101" x2="52.0901" y2="83.9049" gradientUnits="userSpaceOnUse">
<stop stop-color="#9EC23D"/>
<stop offset="1" stop-color="#F9F9F9"/>
</linearGradient>
<linearGradient id="paint2_linear_948_1192" x1="113.33" y1="62.3183" x2="113.506" y2="82" gradientUnits="userSpaceOnUse">
<stop stop-color="white"/>
<stop offset="1" stop-color="#C9D779"/>
</linearGradient>
</defs>
</svg>
