<svg width="140" height="140" viewBox="0 0 140 140" fill="none" xmlns="http://www.w3.org/2000/svg">
<path d="M109.105 36.3945H31C29.8954 36.3945 29 37.29 29 38.3945V77.4472V86.2442L61.2556 118.5H70.0526H109.105C110.21 118.5 111.105 117.604 111.105 116.5V38.3945C111.105 37.29 110.21 36.3945 109.105 36.3945Z" fill="url(#paint0_linear_948_1180)"/>
<path d="M57.1504 91.5223C39.791 91.5223 30.5639 88.199 29 86.2441L33.9403 92.4195C40.0122 100.009 46.8919 106.916 54.4579 113.018L61.2556 118.5C57.1504 113.808 56.7351 98.9509 57.1504 91.5223Z" fill="black"/>
<path d="M77.4311 49.4719C76.2742 52.1017 72.649 53.0513 69.3338 51.593C66.0187 50.1346 64.269 46.8206 65.4259 44.1908C66.5827 41.561 70.208 40.6114 73.5231 42.0698C76.8383 43.5281 78.5879 46.8421 77.4311 49.4719Z" fill="#AFAFA7"/>
<path d="M73.623 39.8994L76.2602 41.422L72.268 47.3215L70.5099 46.3065L73.623 39.8994Z" fill="white"/>
<path d="M84.1377 41.357C81.9555 45.1421 76.8617 46.2936 72.7603 43.9291C68.6589 41.5645 67.1031 36.5793 69.2852 32.7943C71.4674 29.0093 76.5612 27.8578 80.6626 30.2223C84.7639 32.5868 86.3198 37.572 84.1377 41.357Z" fill="url(#paint1_linear_948_1180)"/>
<path d="M81.6055 28.0987C83.3302 29.0931 84.4634 30.6663 84.8101 32.2884L85.8695 32.9001L84.2022 35.788L84.1909 35.7814C82.7024 38.0033 79.3474 38.5133 76.5359 36.8924C73.7219 35.2699 72.4824 32.1065 73.6648 29.7042L73.6536 29.6977L75.3209 26.8098L76.3816 27.4222C77.9577 26.9126 79.8835 27.1059 81.6055 28.0987Z" fill="#A6C926"/>
<path d="M86.2449 32.3287C84.7799 34.8697 81.2045 35.553 78.2589 33.8548C75.3133 32.1566 74.113 28.72 75.578 26.179C77.0429 23.638 80.6183 22.9548 83.5639 24.653C86.5095 26.3511 87.7098 29.7877 86.2449 32.3287Z" fill="#D1F843"/>
<defs>
<linearGradient id="paint0_linear_948_1180" x1="78.8496" y1="97.387" x2="114.624" y2="29.3569" gradientUnits="userSpaceOnUse">
<stop stop-color="#FAFAF8"/>
<stop offset="1" stop-color="#ECECE7"/>
</linearGradient>
<linearGradient id="paint1_linear_948_1180" x1="69.2859" y1="32.7932" x2="84.1396" y2="41.3537" gradientUnits="userSpaceOnUse">
<stop stop-color="#D1F843"/>
<stop offset="1" stop-color="#C0E732"/>
</linearGradient>
</defs>
</svg>
