<svg width="24" height="24" viewBox="0 0 24 24" fill="none" xmlns="http://www.w3.org/2000/svg">
<path d="M6 2C5.73479 2.00003 5.48045 2.10539 5.29292 2.29292C5.10539 2.48045 5.00003 2.73479 5 3L5 21C5.00001 21.1705 5.04358 21.3381 5.12659 21.487C5.2096 21.6359 5.32929 21.7611 5.47429 21.8507C5.61929 21.9403 5.78479 21.9914 5.95508 21.9991C6.12537 22.0067 6.29479 21.9707 6.44727 21.8945L12 19.1172L17.5527 21.8945C17.7052 21.9707 17.8746 22.0067 18.0449 21.9991C18.2152 21.9914 18.3807 21.9403 18.5257 21.8507C18.6707 21.7611 18.7904 21.6359 18.8734 21.487C18.9564 21.3381 19 21.1705 19 21V3C19 2.73479 18.8946 2.48045 18.7071 2.29292C18.5195 2.10539 18.2652 2.00003 18 2L6 2ZM7 4L17 4V19.3828L12.4473 17.1055C12.3084 17.036 12.1553 16.9999 12 16.9999C11.8447 16.9999 11.6916 17.036 11.5527 17.1055L7 19.3828L7 4Z" fill="#1A1A1A"/>
</svg>
