<svg width="24" height="24" viewBox="0 0 24 24" fill="none" xmlns="http://www.w3.org/2000/svg">
<path d="M24 12C24 18.6274 18.6274 24 12 24C5.37258 24 0 18.6274 0 12C0 5.37259 5.37258 0 12 0C18.6274 0 24 5.37259 24 12Z" fill="url(#paint0_linear_2769_9631)"/>
<path d="M10.6379 6.49631C10.6379 6.98723 10.2399 7.3852 9.749 7.3852C9.25808 7.3852 8.86011 6.98723 8.86011 6.49631C8.86011 6.00539 9.25808 5.60742 9.749 5.60742C10.2399 5.60742 10.6379 6.00539 10.6379 6.49631Z" fill="#18181B"/>
<path d="M16.861 4.72019C16.861 5.21111 16.4631 5.60908 15.9721 5.60908C15.4812 5.60908 15.0833 5.21111 15.0833 4.72019C15.0833 4.22927 15.4812 3.8313 15.9721 3.8313C16.4631 3.8313 16.861 4.22927 16.861 4.72019Z" fill="#18181B"/>
<path d="M16.7079 9.69931C16.93 9.80359 17.1945 9.70805 17.2989 9.48592C17.4031 9.26377 17.3076 8.99929 17.0855 8.89495C16.0005 8.38535 14.9373 8.5377 14.08 8.90812C13.231 9.27502 12.5517 9.86696 12.1763 10.3104C12.0177 10.4978 12.041 10.7784 12.2283 10.937C12.4156 11.0955 12.6962 11.0723 12.8548 10.885C13.1574 10.5274 13.7298 10.0277 14.4323 9.72409C15.1267 9.42404 15.9152 9.32695 16.7079 9.69931Z" fill="black"/>
<defs>
<linearGradient id="paint0_linear_2769_9631" x1="12" y1="0" x2="12" y2="24" gradientUnits="userSpaceOnUse">
<stop stop-color="#D0F742"/>
<stop offset="1" stop-color="#BEE629"/>
</linearGradient>
</defs>
</svg>
