<svg width="24" height="24" viewBox="0 0 24 24" fill="none" xmlns="http://www.w3.org/2000/svg">
<path d="M24 12C24 18.6275 18.6274 24 12 24C5.37258 24 0 18.6275 0 12C0 5.37259 5.37258 0 12 0C18.6274 0 24 5.37259 24 12Z" fill="url(#paint0_linear_2769_9623)"/>
<path d="M8.36534 5.91529C8.4118 5.68323 8.6376 5.53279 8.86967 5.57921L10.3609 5.87762C10.6842 5.94229 10.8443 6.21158 10.8803 6.433C10.916 6.65291 10.8518 6.94517 10.5944 7.11813C10.1796 7.39692 9.72885 7.75611 9.32837 8.05647C9.13902 8.19849 8.87022 8.16003 8.7282 7.97067C8.58639 7.78137 8.62481 7.51291 8.814 7.37092C9.09364 7.16119 9.44361 6.88604 9.78749 6.63683L8.70142 6.41961C8.46937 6.37315 8.31893 6.14736 8.36534 5.91529Z" fill="black"/>
<path d="M16.6822 3.23141C16.5057 3.08872 16.247 3.11616 16.1043 3.29264L15.1873 4.42676C14.9884 4.67265 15.0354 4.96938 15.1446 5.15476C15.253 5.33883 15.4795 5.51506 15.7754 5.4849C16.2522 5.43625 16.8048 5.42493 17.2843 5.40101C17.511 5.3897 17.6857 5.19658 17.6744 4.96986C17.663 4.74331 17.4701 4.56885 17.2435 4.58008C16.9087 4.59678 16.4819 4.60834 16.0755 4.6353L16.7435 3.80939C16.8862 3.63289 16.8587 3.37414 16.6822 3.23141Z" fill="black"/>
<path d="M16.4967 8.91063C16.6369 8.70925 16.9137 8.65975 17.1152 8.79995C17.3165 8.9402 17.366 9.21701 17.2258 9.41844C16.541 10.4022 15.5441 10.8019 14.6165 10.9098C13.6977 11.0165 12.8134 10.8436 12.2666 10.6472C12.0357 10.5642 11.9155 10.3096 11.9984 10.0786C12.0814 9.84762 12.336 9.72746 12.567 9.81037C13.0078 9.96871 13.7534 10.1153 14.5136 10.027C15.2649 9.93964 15.9963 9.62946 16.4967 8.91063Z" fill="black"/>
<defs>
<linearGradient id="paint0_linear_2769_9623" x1="12" y1="0" x2="12" y2="24" gradientUnits="userSpaceOnUse">
<stop stop-color="#D0F742"/>
<stop offset="1" stop-color="#BEE629"/>
</linearGradient>
</defs>
</svg>
