<svg width="390" height="42" viewBox="0 0 390 42" fill="none" xmlns="http://www.w3.org/2000/svg">
<path d="M113.214 33.8782L113.828 24.1047C113.899 22.9328 112.325 22.4943 111.779 23.5307L106.202 34.1492C104.572 37.2543 100.499 38.3146 97.7004 35.8632C96.692 34.9783 96.1818 33.3521 96.0662 32.0088L95.281 23.1082C95.1773 21.9483 93.567 21.737 93.1724 22.8331C91.3827 27.8315 89.88 32.9295 88.2577 38.0754C87.4008 40.7978 85.0809 42.0972 82.2987 41.7066C80.7442 41.4874 79.3571 40.8137 78.524 39.6937C77.6352 38.5019 77.4638 36.9673 77.9341 35.353C80.5688 26.3448 84.3714 17.9902 88.2418 9.4603C89.5731 6.52664 90.9562 3.90787 93.4116 1.82721C95.7234 -0.133875 99.2948 -0.508554 101.403 1.9149C103.512 4.33836 103.054 11.1025 103.647 16.7626C103.759 17.8268 105.186 18.0978 105.688 17.1532L108.965 11.0068C112.146 5.03988 115.777 -1.42134 121.52 0.990162C128.169 3.78431 122.234 19.6842 124.231 32.9256C124.486 34.6116 124.482 36.0426 123.537 37.334C122.593 38.6255 121.102 39.2672 119.404 39.4506C115.956 39.8212 113.429 37.6967 113.214 34.0257C113.214 33.9739 113.214 33.922 113.214 33.8742V33.8782Z" fill="#D1F843"/>
<path d="M130.842 5.95174C131.81 2.95032 134.58 1.61104 137.45 2.18103C138.546 2.40026 139.463 2.81081 139.989 3.48444C140.691 4.38127 140.83 5.60097 140.619 6.81669C139.467 13.3497 135.286 28.7912 140.695 30.7204C143.656 31.7767 146.275 27.6193 147.363 23.454C148.786 18.0092 149.01 12.5086 149.356 6.89242C149.564 3.52828 151.612 1.18454 155.1 1.16063C156.288 1.15266 157.583 1.23636 158.412 2.12523C161.294 5.22231 158.632 20.2812 156.898 26.6308C155.953 30.0986 154.45 33.1439 152.095 35.8423C147.491 41.1237 139.583 42.4391 133.58 38.7282C130.411 36.7711 128.861 33.3352 128.171 29.7718C126.959 23.5457 128.717 12.5246 130.838 5.95572L130.842 5.95174Z" fill="#D1F843"/>
<path d="M189.534 36.0481C188.566 39.0496 185.795 40.3888 182.926 39.8189C181.829 39.5996 180.913 39.1891 180.386 38.5154C179.685 37.6186 179.545 36.3989 179.757 35.1832C180.909 28.6502 185.09 13.2087 179.681 11.2795C176.719 10.2232 174.101 14.3805 173.012 18.5459C171.589 23.9907 171.366 29.4913 171.019 35.1075C170.812 38.4716 168.763 40.8153 165.276 40.8393C164.088 40.8472 162.792 40.7635 161.963 39.8747C159.082 36.7776 161.744 21.7187 163.478 15.3691C164.423 11.9013 165.925 8.85602 168.281 6.15754C172.885 0.876157 180.793 -0.439206 186.796 3.27171C189.965 5.22881 191.515 8.6647 192.205 12.2281C193.417 18.4542 191.659 29.4753 189.538 36.0442L189.534 36.0481Z" fill="#D1F843"/>
<path d="M213.651 35.902C213.527 39.1465 212.028 41.1036 208.871 41.4823C207.277 41.6736 205.463 41.3229 204.343 40.3144C202.948 39.0588 202.717 37.2731 202.873 35.2722C203.454 27.7666 204.862 20.5361 206.197 13.0426C206.312 12.4008 205.766 11.8269 205.121 11.9145C202.737 12.2494 200.433 12.7954 198.089 12.5045C195.602 12.1975 194.47 9.84983 194.614 7.72532C194.757 5.60081 196.284 3.72343 198.747 3.31686C207.102 1.93772 215.384 0.773826 223.894 0.470894C225.692 0.407119 227.378 1.25613 228.227 2.48778C229.16 3.83902 229.188 5.56493 228.407 7.1354C227.573 10.659 222.587 10.0013 217.7 10.5314C217.278 10.5753 216.943 10.9021 216.867 11.3206C215.428 19.3842 213.973 27.376 213.651 35.898V35.902Z" fill="#D1F843"/>
<path d="M232.902 6.92427C233.635 3.85908 235.867 2.19694 238.853 2.34044C240.092 2.40023 241.193 2.68323 241.942 3.40468C242.906 4.32942 243.253 5.62087 242.994 7.06777L240.981 18.2483C240.188 22.6568 239.897 29.6362 242.922 30.8439C245.88 32.0238 248.614 28.0697 249.718 23.8207C251.141 18.34 251.54 12.7398 251.608 7.04784C251.652 3.4844 254.067 1.08885 257.627 1.05298C259.751 1.03305 261.768 2.24876 261.9 4.73599C262.294 12.2535 261.337 19.775 259.277 27.0573C258.232 30.7562 256.495 34.0925 253.884 36.779C250.205 40.5657 245.135 41.3668 240.017 40.7689C238.737 40.6175 238.442 40.6454 237.414 40.0435C234.955 38.6086 232.854 36.8707 231.63 34.1284C230.247 31.0273 229.773 27.6751 230.028 24.1475C230.446 18.3281 231.507 12.7198 232.894 6.92427H232.902Z" fill="#D1F843"/>
<path d="M302.37 39.515C294.442 40.085 295.722 32.0015 296.419 23.7027C296.519 22.503 294.885 22.0565 294.359 23.1367L289.309 33.5201C287.734 36.7527 283.696 38.076 280.747 35.8041C279.459 34.8155 279.077 32.9661 278.802 31.4115C278.798 31.3836 278.794 31.3518 278.79 31.3239L277.976 22.9773C277.865 21.8174 276.255 21.6261 275.868 22.7262C274.162 27.585 272.791 32.4957 271.368 37.4941C270.595 40.2085 268.538 41.7949 265.576 41.5359C263.46 41.3485 261.156 40.0292 261 37.6854C260.61 31.858 268.777 13.3393 272.297 6.19247C274.274 2.17862 278.754 -1.11377 282.827 1.20605C284.23 2.00324 284.912 3.67734 285.103 5.55472L286.2 16.3287C286.311 17.4129 287.766 17.68 288.252 16.7034L291.76 9.69213C293.059 7.09727 294.45 4.53033 296.571 2.5812C297.571 1.17815 298.879 1.0227 300.505 0.671934C303.439 0.0381682 306.277 2.32211 306.635 5.58262C307.09 9.75192 306.751 13.9611 306.556 18.246C306.289 24.0934 305.83 30.3991 309.087 34.3851C310.597 36.2345 304.383 39.4273 302.378 39.511L302.37 39.515Z" fill="#D1F843"/>
</svg>
