<svg width="56" height="56" viewBox="0 0 56 56" fill="none" xmlns="http://www.w3.org/2000/svg">
<rect width="56" height="56" rx="28" fill="#0A0A0A"/>
<path d="M36.1447 36.6786L36.5618 30.0923C36.6105 29.3026 35.5407 29.0071 35.1697 29.7055L31.3807 36.8612C30.273 38.9537 27.5051 39.6682 25.6038 38.0163C24.9186 37.4199 24.572 36.324 24.4934 35.4188L23.9599 29.4207C23.8895 28.6391 22.7953 28.4967 22.5272 29.2354C21.3111 32.6038 20.2901 36.0393 19.1878 39.507C18.6055 41.3417 17.0293 42.2173 15.1388 41.9541C14.0826 41.8064 13.1401 41.3524 12.5741 40.5976C11.9701 39.7945 11.8536 38.7603 12.1732 37.6724C13.9634 31.6019 16.5472 25.9718 19.177 20.2235C20.0816 18.2466 21.0213 16.4818 22.6897 15.0797C24.2605 13.7581 26.6872 13.5056 28.1199 15.1387C29.5526 16.7719 29.2411 21.3302 29.6447 25.1445C29.7205 25.8617 30.6901 26.0443 31.0313 25.4077L33.2576 21.2657C35.4189 17.2446 37.8861 12.8905 41.7889 14.5156C46.3064 16.3985 42.2736 27.1134 43.6305 36.0366C43.8039 37.1728 43.8011 38.1371 43.1593 39.0074C42.5174 39.8777 41.5045 40.3102 40.3507 40.4338C38.008 40.6836 36.2909 39.2519 36.1447 36.778C36.1447 36.7431 36.1447 36.7081 36.1447 36.6759V36.6786Z" fill="#D1F843"/>
</svg>
