<svg width="24" height="24" viewBox="0 0 24 24" fill="none" xmlns="http://www.w3.org/2000/svg">
<path d="M5 3C4.45 3 3.97917 3.19583 3.5875 3.5875C3.19583 3.97917 3 4.45 3 5L3 9H5V5H9V3H5ZM15 3V5H19L19 9H21L21 5C21 4.45 20.8042 3.97917 20.4125 3.5875C20.0208 3.19583 19.55 3 19 3L15 3ZM3 15L3 19C3 19.55 3.19583 20.0208 3.5875 20.4125C3.97917 20.8042 4.45 21 5 21H9V19H5L5 15H3ZM19 15V19L15 19V21L19 21C19.55 21 20.0208 20.8042 20.4125 20.4125C20.8042 20.0208 21 19.55 21 19V15H19Z" fill="#1A1A1A"/>
</svg>
