<svg width="18" height="18" viewBox="0 0 18 18" fill="none" xmlns="http://www.w3.org/2000/svg">
<mask id="mask0_2769_9696" style="mask-type:alpha" maskUnits="userSpaceOnUse" x="0" y="0" width="18" height="18">
<rect width="18" height="18" fill="#D9D9D9"/>
</mask>
<g mask="url(#mask0_2769_9696)">
<path d="M15.7502 6.00068C16.1502 6.00068 16.5002 6.15068 16.8002 6.45068C17.1002 6.75068 17.2502 7.10068 17.2502 7.50068V9.00068C17.2502 9.08818 17.2377 9.18193 17.2127 9.28193C17.1877 9.38193 17.1627 9.47568 17.1377 9.56318L14.8877 14.8507C14.7752 15.1007 14.5877 15.3132 14.3252 15.4882C14.0627 15.6632 13.7877 15.7507 13.5002 15.7507H5.25024V6.00068L9.75024 1.53818C9.93774 1.35068 10.1596 1.24131 10.4159 1.21006C10.6721 1.17881 10.919 1.22568 11.1565 1.35068C11.394 1.47568 11.569 1.65068 11.6815 1.87568C11.794 2.10068 11.819 2.33193 11.7565 2.56943L10.9127 6.00068H15.7502ZM6.75024 6.63818V14.2507H13.5002L15.7502 9.00068V7.50068H9.00024L10.0127 3.37568L6.75024 6.63818ZM3.00024 15.7507C2.58774 15.7507 2.23462 15.6038 1.94087 15.3101C1.64712 15.0163 1.50024 14.6632 1.50024 14.2507V7.50068C1.50024 7.08818 1.64712 6.73506 1.94087 6.44131C2.23462 6.14756 2.58774 6.00068 3.00024 6.00068H5.25024V7.50068H3.00024V14.2507H5.25024V15.7507H3.00024Z" fill="#BCBCBA"/>
</g>
</svg>
