<svg width="18" height="18" viewBox="0 0 18 18" fill="none" xmlns="http://www.w3.org/2000/svg">
<mask id="mask0_2769_9691" style="mask-type:alpha" maskUnits="userSpaceOnUse" x="0" y="0" width="18" height="18">
<rect width="18" height="18" fill="#D9D9D9"/>
</mask>
<g mask="url(#mask0_2769_9691)">
<path d="M2.24976 12C1.84976 12 1.49976 11.85 1.19976 11.55C0.899756 11.25 0.749756 10.9 0.749756 10.5V9C0.749756 8.9125 0.762256 8.81875 0.787256 8.71875C0.812256 8.61875 0.837256 8.525 0.862256 8.4375L3.11226 3.15C3.22476 2.9 3.41226 2.6875 3.67476 2.5125C3.93726 2.3375 4.21226 2.25 4.49976 2.25H12.7498V12L8.24976 16.4625C8.06226 16.65 7.84038 16.7594 7.58413 16.7906C7.32788 16.8219 7.08101 16.775 6.84351 16.65C6.60601 16.525 6.43101 16.35 6.31851 16.125C6.20601 15.9 6.18101 15.6688 6.24351 15.4313L7.08726 12H2.24976ZM11.2498 11.3625V3.75H4.49976L2.24976 9V10.5H8.99976L7.98726 14.625L11.2498 11.3625ZM14.9998 2.25C15.4123 2.25 15.7654 2.39688 16.0591 2.69063C16.3529 2.98438 16.4998 3.3375 16.4998 3.75V10.5C16.4998 10.9125 16.3529 11.2656 16.0591 11.5594C15.7654 11.8531 15.4123 12 14.9998 12H12.7498V10.5H14.9998V3.75H12.7498V2.25H14.9998Z" fill="#BCBCBA"/>
</g>
</svg>
