<svg width="18" height="18" viewBox="0 0 18 18" fill="none" xmlns="http://www.w3.org/2000/svg">
<mask id="mask0_2769_9654" style="mask-type:alpha" maskUnits="userSpaceOnUse" x="0" y="0" width="18" height="18">
<rect width="18" height="18" fill="#D9D9D9"/>
</mask>
<g mask="url(#mask0_2769_9654)">
<path d="M15.7502 5.99951C16.1502 5.99951 16.5002 6.14951 16.8002 6.4495C17.1002 6.74951 17.2502 7.0995 17.2502 7.49951V8.99951C17.2502 9.08701 17.2409 9.18076 17.2221 9.28076C17.2034 9.38076 17.1752 9.47451 17.1377 9.56201L14.8877 14.8495C14.7752 15.0995 14.5877 15.312 14.3252 15.487C14.0627 15.662 13.7877 15.7495 13.5002 15.7495H7.50024C7.08774 15.7495 6.73462 15.6026 6.44087 15.3089C6.14712 15.0151 6.00024 14.662 6.00024 14.2495V6.61826C6.00024 6.41825 6.04087 6.22763 6.12212 6.04638C6.20337 5.86513 6.31274 5.70575 6.45024 5.56825L10.519 1.51825C10.7065 1.34325 10.9284 1.237 11.1846 1.1995C11.4409 1.162 11.6877 1.20575 11.9252 1.33075C12.1627 1.45575 12.3346 1.63075 12.4409 1.85575C12.5471 2.08075 12.569 2.312 12.5065 2.5495L11.6627 5.99951H15.7502ZM3.00024 15.7495C2.58774 15.7495 2.23462 15.6026 1.94087 15.3089C1.64712 15.0151 1.50024 14.662 1.50024 14.2495V7.49951C1.50024 7.087 1.64712 6.73388 1.94087 6.44013C2.23462 6.14638 2.58774 5.99951 3.00024 5.99951C3.41274 5.99951 3.76587 6.14638 4.05962 6.44013C4.35337 6.73388 4.50024 7.087 4.50024 7.49951V14.2495C4.50024 14.662 4.35337 15.0151 4.05962 15.3089C3.76587 15.6026 3.41274 15.7495 3.00024 15.7495Z" fill="white"/>
</g>
</svg>
