<svg width="18" height="18" viewBox="0 0 18 18" fill="none" xmlns="http://www.w3.org/2000/svg">
<mask id="mask0_2769_9669" style="mask-type:alpha" maskUnits="userSpaceOnUse" x="0" y="0" width="18" height="18">
<rect width="18" height="18" fill="#D9D9D9"/>
</mask>
<g mask="url(#mask0_2769_9669)">
<path d="M2.25 12C1.85 12 1.5 11.85 1.2 11.55C0.9 11.25 0.75 10.9 0.75 10.5V9C0.75 8.9125 0.759375 8.81875 0.778125 8.71875C0.796875 8.61875 0.825 8.525 0.8625 8.4375L3.1125 3.15C3.225 2.9 3.4125 2.6875 3.675 2.5125C3.9375 2.3375 4.2125 2.25 4.5 2.25H10.5C10.9125 2.25 11.2656 2.39688 11.5594 2.69063C11.8531 2.98438 12 3.3375 12 3.75V11.3813C12 11.5813 11.9594 11.7719 11.8781 11.9531C11.7969 12.1344 11.6875 12.2937 11.55 12.4312L7.48125 16.4813C7.29375 16.6562 7.07188 16.7625 6.81563 16.8C6.55938 16.8375 6.3125 16.7938 6.075 16.6688C5.8375 16.5437 5.66563 16.3687 5.55937 16.1437C5.45312 15.9187 5.43125 15.6875 5.49375 15.45L6.3375 12H2.25ZM15 2.25C15.4125 2.25 15.7656 2.39688 16.0594 2.69063C16.3531 2.98438 16.5 3.3375 16.5 3.75V10.5C16.5 10.9125 16.3531 11.2656 16.0594 11.5594C15.7656 11.8531 15.4125 12 15 12C14.5875 12 14.2344 11.8531 13.9406 11.5594C13.6469 11.2656 13.5 10.9125 13.5 10.5V3.75C13.5 3.3375 13.6469 2.98438 13.9406 2.69063C14.2344 2.39688 14.5875 2.25 15 2.25Z" fill="white"/>
</g>
</svg>
